<svg width="200" height="200" viewBox="0 0 200 200" fill="none" xmlns="http://www.w3.org/2000/svg">
<rect width="200" height="200" rx="40" ry="40" />
<path d="M168.982 100.153C168.982 103.305 167.39 106.513 164.074 109.644C160.754 112.779 155.841 115.695 149.603 118.186C137.137 123.164 119.777 126.288 100.5 126.288C81.2226 126.288 63.8631 123.164 51.3974 118.186C45.1589 115.695 40.2459 112.779 36.9257 109.644C33.6096 106.513 32.0181 103.305 32.0181 100.153C32.0181 97.0008 33.6096 93.7928 36.9257 90.662C40.2459 87.5272 45.1589 84.6112 51.3974 82.12C63.8631 77.1421 81.2226 74.0181 100.5 74.0181C119.777 74.0181 137.137 77.1421 149.603 82.12C155.841 84.6112 160.754 87.5272 164.074 90.662C167.39 93.7928 168.982 97.0008 168.982 100.153Z" stroke="#1E3A5F" stroke-width="4.03626"/>
<path d="M77.9632 110.853L76.2478 105.538H67.5698L65.8544 110.853H62.9954L70.597 87.9804H73.3551L80.9904 110.853H77.9632ZM69.6889 98.9456L68.4107 102.881H75.3733L74.0951 98.9456L71.9088 91.8821L69.6889 98.9456ZM98.5534 87.9804L91.2545 110.853H88.2946L80.962 87.9804H84.0565L87.6891 99.5846L89.8754 106.917L92.0954 99.551L95.6607 87.9804H98.5534ZM113.602 110.853L111.887 105.538H103.209L101.494 110.853H98.6346L106.236 87.9804H108.994L116.63 110.853H113.602ZM105.328 98.9456L104.05 102.881H111.012L109.734 98.9456L107.548 91.8821L105.328 98.9456ZM133.385 110.853L126.86 100.056C126.389 100.549 125.896 101.053 125.38 101.569C124.886 102.085 124.371 102.601 123.833 103.116V110.853H120.906V87.9804H123.833V99.8537C125.94 97.7235 127.701 95.7054 129.113 93.7993C130.526 91.8933 131.726 89.9537 132.712 87.9804H135.874C134.865 89.9537 133.811 91.7476 132.712 93.3621C131.636 94.9542 130.403 96.5462 129.012 98.1383L136.95 110.853H133.385Z" fill="#1E3A5F"/>
</svg>
